<?xml version="1.0" encoding="iso-8859-1"?>
<!-- Uploaded to: SVG Repo, www.svgrepo.com, Generator: SVG Repo Mixer Tools -->
<svg height="800px" width="800px" version="1.1" id="Layer_1" xmlns="http://www.w3.org/2000/svg" xmlns:xlink="http://www.w3.org/1999/xlink" 
	 viewBox="0 0 512 512" xml:space="preserve">
<g>
	<path style="fill:#A72328;" d="M82.674,249.441c-8.263,0-14.963-6.701-14.963-14.963v-74.317c0-8.263,6.701-14.963,14.963-14.963
		s14.963,6.701,14.963,14.963v74.317C97.637,242.742,90.937,249.441,82.674,249.441z"/>
	<path style="fill:#A72328;" d="M317.969,241.036c-8.263,0-14.963-6.701-14.963-14.963v-89.78c0-8.263,6.701-14.963,14.963-14.963
		s14.963,6.701,14.963,14.963v89.78C332.932,234.335,326.232,241.036,317.969,241.036z"/>
	<path style="fill:#A72328;" d="M151.227,241.04c-1.698,0-3.424-0.29-5.113-0.905c-7.766-2.825-11.772-11.41-8.947-19.175
		l49.451-135.973c8.367-23.011,30.44-38.471,54.926-38.471h134.588c22.382,0,41.115,16.054,44.541,38.171l11.342,73.184
		c1.266,8.165-4.329,15.812-12.496,17.078c-8.148,1.275-15.812-4.327-17.078-12.496l-11.342-73.184
		c-1.152-7.432-7.447-12.827-14.968-12.827H241.544c-11.948,0-22.719,7.545-26.802,18.771l-49.451,135.975
		C163.081,237.264,157.341,241.04,151.227,241.04z"/>
	<path style="fill:#A72328;" d="M75.191,462.492c-41.254,0-74.817-33.563-74.817-74.817s33.563-74.817,74.817-74.817
		s74.817,33.563,74.817,74.817S116.445,462.492,75.191,462.492z M75.191,342.785c-24.752,0-44.89,20.138-44.89,44.89
		s20.138,44.89,44.89,44.89s44.89-20.138,44.89-44.89S99.943,342.785,75.191,342.785z"/>
</g>
<path style="fill:#F4DABB;" d="M370.974,226.073H56.744c-23.075,0-41.781,18.707-41.781,41.782v119.82h0.374
	c0-33.055,26.798-59.853,59.853-59.853s59.853,26.798,59.853,59.853h131.845c-0.516-5.002-0.784-10.076-0.784-15.213
	C266.105,295.537,295.614,232.242,370.974,226.073z"/>
<g>
	<path style="fill:#A72328;" d="M266.887,402.638H135.044c-8.263,0-14.963-6.701-14.963-14.963c0-24.752-20.138-44.89-44.89-44.89
		s-44.89,20.138-44.89,44.89c0,8.263-6.701,14.963-14.963,14.963h-0.374C6.701,402.638,0,395.938,0,387.675v-119.82
		c0-31.29,25.456-56.745,56.744-56.745h314.231c8.026,0,14.622,6.332,14.95,14.353c0.329,8.019-5.729,14.871-13.729,15.524
		c-30.672,2.511-53.994,15.909-69.319,39.82c-14.268,22.264-21.809,53.958-21.809,91.655c0,4.544,0.236,9.147,0.705,13.679
		c0.434,4.212-0.937,8.412-3.774,11.558C275.161,400.844,271.123,402.638,266.887,402.638z M148.503,372.712h102.638
		c0-0.084,0-0.166,0-0.25c0-59.095,16.271-104.065,46.246-131.426H56.744c-14.787,0-26.817,12.031-26.817,26.819v60.286
		c12.575-9.584,28.269-15.282,45.264-15.282C111.321,312.858,141.553,338.604,148.503,372.712z"/>
	<path style="fill:#A72328;" d="M412.245,465.484c-55.007,0-99.756-44.749-99.756-99.756s44.749-99.756,99.756-99.756
		c55.005,0,99.754,44.749,99.754,99.756S467.251,465.484,412.245,465.484z M412.245,295.899c-38.504,0-69.829,31.326-69.829,69.829
		s31.326,69.829,69.829,69.829c38.502,0,69.828-31.326,69.828-69.829S450.748,295.899,412.245,295.899z"/>
</g>
</svg>